<svg xmlns="http://www.w3.org/2000/svg" viewBox="0 0 34.084 57.153">
  <defs>
    <style>
      .cls-1 {
        fill: #ec3838;
      }

      .cls-2 {
        fill: #ae2828;
      }
    </style>
  </defs>
  <g id="blood_drop" data-name="BloodDrop" transform="translate(0)">
    <g id="g3782" transform="translate(0)">
      <path id="path73" class="cls-1" d="M90.82,110.348a16.469,16.469,0,0,1-10.025-5.8,22.772,22.772,0,0,1-4.24-20.178c.64-2.433,1.08-3.4,3.834-8.4,3.784-6.867,9.872-17.962,10.2-18.592.233-.445.84-1.557,1.348-2.472l.924-1.664.837,1.517c1.4,2.533,2.545,4.623,4.043,7.361.786,1.436,1.909,3.486,2.5,4.556,8.1,14.754,8.126,14.806,8.822,17.255a19.806,19.806,0,0,1,.818,6.443,20.591,20.591,0,0,1-1.788,9.039,17.478,17.478,0,0,1-3.241,5.149,16,16,0,0,1-8.546,5.511,27.482,27.482,0,0,1-5.485.272Z" transform="translate(-75.796 -53.245)"/>
      <path id="path73-8" class="cls-2" d="M112.022,53.245l.837,1.517c1.4,2.533,2.545,4.623,4.043,7.361.786,1.436,1.909,3.486,2.5,4.556,8.1,14.754,8.126,14.806,8.822,17.255a19.807,19.807,0,0,1,.818,6.443,20.591,20.591,0,0,1-1.788,9.039,17.478,17.478,0,0,1-3.241,5.149,16,16,0,0,1-8.546,5.511,22.341,22.341,0,0,1-3.53.309c13.566-20.208,5.03-36.271.089-57.141Z" transform="translate(-94.954 -53.245)"/>
    </g>
  </g>
</svg>
