<svg xmlns="http://www.w3.org/2000/svg" viewBox="0 0 1943.296 377.706">
  <defs>
    <style>
      .cls-1, .cls-2, .cls-3 {
        fill: #fff;
      }

      .cls-1 {
        opacity: 0.55;
      }

      .cls-2 {
        opacity: 0.43;
      }

      .cls-3 {
        opacity: 0.39;
      }
    </style>
  </defs>
  <g id="InfoBottom" transform="translate(9.931 -2507)">
    <path id="Path_13" data-name="Path 13" class="cls-1" d="M-9.931,118.472,214.19,300.587,409.14,138.334l129.2,175.771,90.368-111.024L743.6,333.469,916.592,130.786l196.228,194.937,162.663-157.5,200.1,132.363,184.809-158.281,272.972,158.281v101.7H-9.931Z" transform="translate(0 2403)"/>
    <path id="Path_14" data-name="Path 14" class="cls-2" d="M0,206.858,169.174,43.107,351.36,265.418l181.1-160.5L634.4,238.307,796.526,0,984.677,292.529,1093.99,75.749l126.88,245.3,155.076-245.3,200.189,189.669,344.441-248.88V377.706H0Z" transform="translate(0 2507)"/>
    <path id="Path_15" data-name="Path 15" class="cls-3" d="M-2.768,49.112,122.954,223.89,287.806,49.112,443.713,223.89,593.3,29.532,700.376,208.465,787.8,69.49l88.427,138.975L998.385,37.8l96.234,147.974,90.054-141.261,114.159,185.461L1495.153,21.608,1662.6,229.975,1810.161,12.368,1920.39,150.4v124.21H-2.768Z" transform="translate(0.186 2524)"/>
  </g>
</svg>
