<svg xmlns="http://www.w3.org/2000/svg" viewBox="0 0 1920 377.706">
  <defs>
    <style>
      .cls-1, .cls-2, .cls-3 {
        fill: #fff;
      }

      .cls-1 {
        opacity: 0.55;
      }

      .cls-2 {
        opacity: 0.43;
      }

      .cls-3 {
        opacity: 0.39;
      }
    </style>
  </defs>
  <g id="InfoBottom" transform="translate(9.931 -2507)">
    <path id="Path_13" data-name="Path 13" class="cls-1" d="M-9.931,118.472,211.5,300.587,404.116,138.334,531.765,314.105,621.05,203.081,734.569,333.469,905.485,130.786l193.876,194.937,160.713-157.5,197.7,132.363L1640.37,142.306l269.7,158.281v101.7h-1920Z" transform="translate(0 2403)"/>
    <path id="Path_14" data-name="Path 14" class="cls-2" d="M0,206.858,169.123,43.107,351.255,265.418,532.3,104.92,634.211,238.307,796.287,0,984.382,292.529l109.28-216.781,126.842,245.3,155.029-245.3,200.129,189.669L1920,16.538V377.706H0Z" transform="translate(-9.931 2507)"/>
    <path id="Path_15" data-name="Path 15" class="cls-3" d="M-2.768,49.112,122.747,223.89,287.329,49.112,442.979,223.89,592.321,29.532l106.9,178.932L786.5,69.49l88.282,138.975L996.741,37.8l96.076,147.974,89.906-141.261,113.971,185.461,196-208.367,167.168,208.367L1807.184,12.368,1917.232,150.4v124.21h-1920Z" transform="translate(-7.163 2524)"/>
  </g>
</svg>
