<?xml version="1.0" encoding="utf-8"?>
<!-- Generator: Adobe Illustrator 21.0.0, SVG Export Plug-In . SVG Version: 6.00 Build 0)  -->
<svg version="1.1" id="Layer_1" xmlns="http://www.w3.org/2000/svg" xmlns:xlink="http://www.w3.org/1999/xlink" x="0px" y="0px"
	 viewBox="0 0 500 500" style="enable-background:new 0 0 500 500;" xml:space="preserve">
<style type="text/css">
	.st0{fill:#B69B2E;}
	.st1{fill:#B69F42;}
	.st2{fill:#FFDA40;}
	.st3{fill:#E8C73D;}
	.st4{enable-background:new    ;}
	.st5{clip-path:url(#SVGID_2_);enable-background:new    ;}
	.st6{fill:#B49A2D;}
	.st7{fill:#B3992D;}
	.st8{clip-path:url(#SVGID_4_);enable-background:new    ;}
	.st9{clip-path:url(#SVGID_6_);enable-background:new    ;}
	.st10{clip-path:url(#SVGID_8_);enable-background:new    ;}
	.st11{clip-path:url(#SVGID_10_);enable-background:new    ;}
</style>
<circle class="st0" cx="239.6" cy="260.4" r="239.6"/>
<polygon class="st1" points="388.5,448.1 43.1,123.4 60.1,100 410.9,430.3 "/>
<circle class="st2" cx="256.5" cy="242.8" r="242.8"/>
<circle class="st0" cx="256.5" cy="242.8" r="211.4"/>
<ellipse transform="matrix(0.6375 -0.7705 0.7705 0.6375 -96.7394 284.6168)" class="st3" cx="254.1" cy="245.1" rx="208.4" ry="211"/>
<g>
	<g>
		<g class="st4">
			<g class="st4">
				<defs>
					<path id="SVGID_1_" class="st4" d="M407.3,264.1l-5.2,3.5c-2.3,0-4.4,0-6.4,0c-6.7,0-11.4-0.1-16.1-0.3
						c-4.8-0.1-9.5-0.3-16.2-0.3c-1.9,0-4.1,0-6.4,0l5.2-3.5c2.3,0,4.4,0,6.4,0c6.7,0,11.5,0.1,16.2,0.3c4.7,0.1,9.4,0.3,16.1,0.3
						C402.8,264.1,404.9,264.1,407.3,264.1z"/>
				</defs>
				<clipPath id="SVGID_2_">
					<use xlink:href="#SVGID_1_"  style="overflow:visible;"/>
				</clipPath>
				<g class="st5">
					<path class="st0" d="M407.3,264.1l-5.2,3.5c-2.3,0-4.4,0-6.4,0c-6.7,0-11.4-0.1-16.1-0.3c-4.8-0.1-9.5-0.3-16.2-0.3
						c-1.9,0-4.1,0-6.4,0l5.2-3.5c2.3,0,4.4,0,6.4,0c6.7,0,11.5,0.1,16.2,0.3c4.7,0.1,9.4,0.3,16.1,0.3
						C402.8,264.1,404.9,264.1,407.3,264.1"/>
				</g>
			</g>
			<g>
				<polygon class="st6" points="325.6,233.4 320.4,236.9 318.8,180.7 324,177.2 				"/>
			</g>
			<g>
				<polygon class="st7" points="390.9,301.6 385.7,305.1 356,304.5 361.2,301 				"/>
			</g>
			<g>
				<polygon class="st6" points="325.9,271.9 320.6,275.4 320.6,267.5 325.8,264 				"/>
			</g>
			<g class="st4">
				<defs>
					<path id="SVGID_3_" class="st4" d="M259.9,188.5l-5.2,3.5c21.6-23.2,43.2-46.5,64.9-69.7l5.2-3.5
						C303.1,142.1,281.5,165.3,259.9,188.5z"/>
				</defs>
				<clipPath id="SVGID_4_">
					<use xlink:href="#SVGID_3_"  style="overflow:visible;"/>
				</clipPath>
				<g class="st8">
					<path class="st0" d="M259.9,188.5l-5.2,3.5c21.6-23.2,43.2-46.5,64.9-69.7l5.2-3.5C303.1,142.1,281.5,165.3,259.9,188.5"/>
				</g>
			</g>
			<g>
				<polygon class="st6" points="251.5,233.4 246.3,236.9 189,180.7 194.2,177.2 				"/>
			</g>
			<g>
				<polygon class="st7" points="367.3,380.6 362.1,384.1 321.4,384.1 326.7,380.6 				"/>
			</g>
			<g>
				<polygon class="st6" points="326.7,380.6 321.4,384.1 320.9,304.3 326.1,300.8 				"/>
			</g>
			<g>
				<polygon class="st7" points="325.8,264 320.6,267.5 188.5,267.6 193.7,264.1 				"/>
			</g>
			<g class="st4">
				<defs>
					<path id="SVGID_5_" class="st4" d="M154.8,233.1l-5.2,3.5c-1.1-43-7.4-89.7-19.4-129.6l5.2-3.5
						C147.4,143.4,153.7,190.1,154.8,233.1z"/>
				</defs>
				<clipPath id="SVGID_6_">
					<use xlink:href="#SVGID_5_"  style="overflow:visible;"/>
				</clipPath>
				<g class="st9">
					<path class="st0" d="M154.8,233.1l-5.2,3.5c-1.1-43-7.4-89.7-19.4-129.6l5.2-3.5C147.4,143.4,153.7,190.1,154.8,233.1"/>
				</g>
			</g>
			<g>
				<polygon class="st7" points="326.1,300.8 320.9,304.3 188.7,304.3 193.9,300.8 				"/>
			</g>
			<g>
				<polygon class="st6" points="157.7,270.7 152.5,274.2 152.1,267.1 157.3,263.6 				"/>
			</g>
			<g class="st4">
				<defs>
					<path id="SVGID_7_" class="st4" d="M157.3,263.6l-5.2,3.5c-2.3,0-4.4,0-6.4,0c-6.7,0-11.5,0.1-16.2,0.3
						c-4.7,0.1-9.4,0.3-16.1,0.3c-1.9,0-4.1,0-6.4,0l5.2-3.5c2.3,0,4.4,0,6.4,0c6.7,0,11.4-0.1,16.1-0.3c4.8-0.1,9.5-0.3,16.2-0.3
						C152.9,263.6,155,263.6,157.3,263.6z"/>
				</defs>
				<clipPath id="SVGID_8_">
					<use xlink:href="#SVGID_7_"  style="overflow:visible;"/>
				</clipPath>
				<g class="st10">
					<path class="st0" d="M157.3,263.6l-5.2,3.5c-2.3,0-4.4,0-6.4,0c-6.7,0-11.5,0.1-16.2,0.3c-4.7,0.1-9.4,0.3-16.1,0.3
						c-1.9,0-4.1,0-6.4,0l5.2-3.5c2.3,0,4.4,0,6.4,0c6.7,0,11.4-0.1,16.1-0.3c4.8-0.1,9.5-0.3,16.2-0.3
						C152.9,263.6,155,263.6,157.3,263.6"/>
				</g>
			</g>
			<g>
				<polygon class="st7" points="112.2,264.1 107,267.6 124.1,237.8 129.3,234.3 				"/>
			</g>
			<g>
				<polygon class="st7" points="158.8,301 153.6,304.5 123.9,305.1 129.2,301.6 				"/>
			</g>
			<g>
				<polygon class="st6" points="129.2,301.6 123.9,305.1 107.1,274.8 112.3,271.4 				"/>
			</g>
			<g>
				<polygon class="st7" points="194.5,380.6 189.3,384.1 148.7,384.1 153.9,380.6 				"/>
			</g>
			<g>
				<path class="st2" d="M362.1,263.6l-0.3,7.1l45.4,0.7l-16.4,30.2l-29.6-0.6c0,29.1,2.5,48.3,6,79.6h-40.6l-0.6-79.8H193.9
					l0.6,79.8h-40.6c3.1-31.4,5.3-50.5,4.9-79.6l-29.6,0.6l-16.9-30.2l45.4-0.7l-0.3-7.1c-2.3,0-4.4,0-6.4,0
					c-6.7,0-11.5,0.1-16.2,0.3c-4.7,0.1-9.4,0.3-16.1,0.3c-1.9,0-4.1,0-6.4,0l17.1-29.8l25.5-1.2c-1.1-43-7.4-89.7-19.4-129.6
					l57.3,15.3c22,23.2,43.9,46.5,65.9,69.7h1.4c21.6-23.2,43.2-46.5,64.9-69.7l57-15.3c-11.5,39.9-17.1,86.6-17.5,129.6l25.5,1.2
					l17.5,29.8c-2.3,0-4.4,0-6.4,0c-6.7,0-11.4-0.1-16.1-0.3c-4.8-0.1-9.5-0.3-16.2-0.3C366.6,263.6,364.5,263.6,362.1,263.6z
					 M267.5,233.4h58.1l-1.6-56.2L267.5,233.4 M194.2,177.2l-0.7,56.2h58.1L194.2,177.2 M325.9,271.9l-0.1-7.8l-132.1,0l0.1,7.8
					H325.9"/>
			</g>
			<g class="st4">
				<defs>
					<path id="SVGID_9_" class="st4" d="M153.9,380.6l-5.2,3.5c3.1-31.4,5.3-50.5,4.9-79.6l5.2-3.5
						C159.2,330.1,157,349.3,153.9,380.6z"/>
				</defs>
				<clipPath id="SVGID_10_">
					<use xlink:href="#SVGID_9_"  style="overflow:visible;"/>
				</clipPath>
				<g class="st11">
					<path class="st0" d="M153.9,380.6l-5.2,3.5c3.1-31.4,5.3-50.5,4.9-79.6l5.2-3.5C159.2,330.1,157,349.3,153.9,380.6"/>
				</g>
			</g>
		</g>
	</g>
</g>
</svg>
