<svg xmlns="http://www.w3.org/2000/svg" xmlns:xlink="http://www.w3.org/1999/xlink" viewBox="0 0 529.839 857.844">
  <defs>
    <style>
      .cls-1 {
        fill: #fff;
      }

      .cls-2, .cls-3 {
        stroke: none;
      }

      .cls-3 {
        fill: #152d48;
      }

      .cls-4 {
        filter: url(#QuestBG);
      }
    </style>
    <filter id="QuestBG" x="0" y="0" width="529.839" height="857.844" filterUnits="userSpaceOnUse">
      <feOffset dy="3" input="SourceAlpha"/>
      <feGaussianBlur stdDeviation="3" result="blur"/>
      <feFlood flood-opacity="0.161"/>
      <feComposite operator="in" in2="blur"/>
      <feComposite in="SourceGraphic"/>
    </filter>
  </defs>
  <g class="cls-4" transform="matrix(1, 0, 0, 1, 0, 0)">
    <g id="QuestBG-2" data-name="QuestBG" class="cls-1" transform="translate(19 16)">
      <path class="cls-2" d="M -4.999943733215332 814.1190185546875 L -4.999943733215332 798.3938598632813 L -4.999943733215332 -6.591797045985004e-06 L -4.999943733215332 -5.000006675720215 L 5.642361065838486e-05 -5.000006675720215 L 491.8379516601563 -5.000006675720215 L 496.8385009765625 -5.000006675720215 L 496.8379516601563 0.0005489637842401862 L 496.7743835449219 623.3051147460938 L 496.7669372558594 696.4039916992188 L 496.7600708007813 764.7109985351563 L 496.75927734375 772.6029052734375 L 489.6238403320313 769.2310791015625 L 464.1536560058594 757.1953125 L 437.7632751464844 796.9782104492188 L 434.2546081542969 802.2674560546875 L 429.9339599609375 797.6177978515625 L 410.3612365722656 776.5548706054688 L 392.4209594726563 797.4695434570313 L 388.5228271484375 802.0139770507813 L 384.7460632324219 797.3682250976563 L 364.955810546875 773.0242919921875 L 345.3629455566406 801.2453002929688 L 341.029052734375 807.4876708984375 L 337.0116271972656 801.0372314453125 L 314.4744873046875 764.8519287109375 L 297.8743896484375 786.8159790039063 L 294.5239562988281 791.2490844726563 L 290.4678344726563 787.4508666992188 L 274.375 772.3809204101563 L 257.8643798828125 796.9992065429688 L 252.8613891601563 804.458984375 L 249.1569519042969 796.2763061523438 L 230.1734924316406 754.3452758789063 L 212.9531707763672 781.2872314453125 L 209.4239501953125 786.8087768554688 L 205.0303955078125 781.9466552734375 L 188.0233459472656 763.1259765625 L 153.9599456787109 794.4248657226563 L 150.9535064697266 797.1873168945313 L 147.6458282470703 794.7938842773438 L 121.8565292358398 776.1328125 L 102.5589447021484 804.8151245117188 L 97.13427734375 812.8778686523438 L 93.72772216796875 803.7767944335938 L 81.04639434814453 769.8964233398438 L 70.36839294433594 781.9153442382813 L 67.13461303710938 785.5552368164063 L 63.41005706787109 782.419189453125 L 34.59207153320313 758.1544799804688 L 4.081834316253662 801.2815551757813 L -4.999943733215332 814.1190185546875 Z"/>
      <path class="cls-3" d="M -6.103515625e-05 0 L -6.103515625e-05 798.3938598632813 L 33.6517333984375 750.8263549804688 L 66.6304931640625 778.5944213867188 L 82.82015991210938 760.3717651367188 L 98.41049194335938 802.0239868164063 L 120.5961608886719 769.049072265625 L 150.5769348144531 790.7429809570313 L 188.3528442382813 756.0330200195313 L 208.7401733398438 778.5944213867188 L 230.9259338378906 743.8839721679688 L 253.7118377685547 794.214111328125 L 273.4989624023438 764.7103271484375 L 293.885498046875 783.8012084960938 L 314.8722839355469 756.0330200195313 L 341.2557373046875 798.3938598632813 L 364.6409301757813 764.7103271484375 L 388.6258239746094 794.214111328125 L 410.2120666503906 769.049072265625 L 433.5967102050781 794.214111328125 L 462.3785095214844 750.8263549804688 L 491.7599487304688 764.7103271484375 L 491.7669372558594 696.4033203125 L 491.7743835449219 623.3045654296875 L 491.8378295898438 0 L -6.103515625e-05 0 M -10.00006103515625 -10 L -6.103515625e-05 -10 L 491.8378295898438 -10 L 501.8388366699219 -10 L 501.8378295898438 0.0009765625 L 501.7743835449219 623.3055419921875 L 501.7669372558594 696.404296875 L 501.7599487304688 764.7113037109375 L 501.7582702636719 780.4952392578125 L 487.4874877929688 773.7516479492188 L 465.9288635253906 763.5642700195313 L 441.929931640625 799.7420043945313 L 434.91259765625 810.3204345703125 L 426.2712707519531 801.0213012695313 L 410.5104064941406 784.060546875 L 396.2159423828125 800.724853515625 L 388.4198303222656 809.8135375976563 L 380.8663940429688 800.5220947265625 L 365.2708129882813 781.3380126953125 L 349.4701538085938 804.0968627929688 L 340.802490234375 816.58154296875 L 332.7675170898438 803.6805419921875 L 314.07666015625 773.6707763671875 L 301.86328125 789.8306884765625 L 295.1622924804688 798.697021484375 L 287.0501708984375 791.1004638671875 L 275.2510681152344 780.0512084960938 L 262.0169677734375 799.7841186523438 L 252.0109405517578 814.7036743164063 L 244.6019439697266 798.3384399414063 L 229.4210815429688 764.8065185546875 L 217.1660461425781 783.97998046875 L 210.1077270507813 795.0231323242188 L 201.3206176757813 785.2990112304688 L 187.6937255859375 770.2189331054688 L 157.3428344726563 798.1065673828125 L 151.3300476074219 803.63134765625 L 144.7147216796875 798.8445434570313 L 123.1169128417969 783.2164916992188 L 106.7073974609375 807.606201171875 L 95.85806274414063 823.731689453125 L 89.0450439453125 805.5294189453125 L 79.27273559570313 779.4210205078125 L 74.10629272460938 785.2362060546875 L 67.63861083984375 792.5159912109375 L 60.18960571289063 786.2440185546875 L 35.532470703125 765.4827270507813 L 8.163604736328125 804.169189453125 L -10.00006103515625 829.843994140625 L -10.00006103515625 798.3938598632813 L -10.00006103515625 0 L -10.00006103515625 -10 Z"/>
    </g>
  </g>
</svg>
